# xmcd CD database file
#
# Track frame offsets:
#	183
#	13955
#	26828
#	40400
#	53943
#	65803
#	80760
#	94538
#	108058
#	121300
#	135418
#	147575
#	161223
#	177433
#	192768
#	205983
#	224070
#	244003
#	257640
#
# Disc length: 3728 seconds
#
# Revision: 0
# Processed by: cddbd v1.5.1PL0 Copyright (c) Steve Scherf et al.
# Submitted via: cdripper 1,0,15,908
#
DISCID=230e8e13
DTITLE=Sidney Bechet - JazzTime 27
DYEAR=1900
DGENRE=Jazz
TTITLE0=Perdido street blues
TTITLE1=Blues
TTITLE2=When the Saint go marching in
TTITLE3=Tin roof blues
TTITLE4=Cake walking babies
TTITLE5=Basin street blues
TTITLE6=At the jazz band ball
TTITLE7=Mon home
TTITLE8=None of my jelly roll
TTITLE9=running wild
TTITLE10=Rockin' chair
TTITLE11=Big butter and egg man
TTITLE12=My melancholy baby
TTITLE13=Limehouse blues
TTITLE14=I gotta right to sing the blues
TTITLE15=crazy rhythm
TTITLE16=Somebody stole my gal
TTITLE17=Darktown strutters'ball
TTITLE18=Dinah
EXTD=
EXTT0=
EXTT1=
EXTT2=
EXTT3=
EXTT4=
EXTT5=
EXTT6=
EXTT7=
EXTT8=
EXTT9=
EXTT10=
EXTT11=
EXTT12=
EXTT13=
EXTT14=
EXTT15=
EXTT16=
EXTT17=
EXTT18=
PLAYORDER=
